<svg width="670" height="960" viewBox="0 0 670 960" fill="none" xmlns="http://www.w3.org/2000/svg">
<path d="M144.73 960C96.3398 911.615 48.442 863.723 0.00012207 815.286C76.0823 739.213 152.527 662.776 229.697 585.615C227.262 584.242 225.423 583.128 223.532 582.17C198.094 569.219 174.572 553.444 153.667 533.966C101.702 485.556 69.5543 426.37 58.3376 356.15C37.1734 223.533 102.946 94.1271 222.522 32.9987C254.333 16.7324 288.035 6.16441 323.576 2.25323C422.014 -8.59964 507.526 19.7888 578.686 88.7654C623.346 132.047 651.167 185.017 663.705 245.964C668.912 271.27 671.01 296.835 669.508 322.581C665.001 400.339 636.479 468.046 581.432 523.347C437.427 668.008 292.879 812.1 148.512 956.425C147.217 957.72 145.844 958.938 144.678 960.026L144.73 960Z" fill="#ADEDEA"/>
</svg>
