<svg width="105" height="150" viewBox="0 0 105 150" fill="none" xmlns="http://www.w3.org/2000/svg">
<path d="M82.3185 -1.72417e-05C89.902 7.56007 97.4084 15.0433 105 22.6115C93.0767 34.498 81.0965 46.4412 69.0027 58.4977C69.3843 58.7122 69.6725 58.8862 69.9689 59.0359C73.9555 61.0595 77.6417 63.5242 80.9179 66.5677C89.0616 74.1319 94.0997 83.3796 95.8575 94.3515C99.1743 115.073 88.8667 135.293 70.1272 144.844C65.1419 147.385 59.8602 149.037 54.2903 149.648C38.8634 151.344 25.4624 146.908 14.3104 136.13C7.31148 129.368 2.95137 121.091 0.986476 111.568C0.170475 107.614 -0.158367 103.619 0.0770994 99.5966C0.783483 87.447 5.25322 76.8677 13.8801 68.227C36.4479 45.6236 59.1011 23.1093 81.7257 0.558485C81.9287 0.356138 82.1439 0.165907 82.3266 -0.00407608L82.3185 -1.72417e-05Z" fill="#ADEDEA"/>
</svg>
